<?xml version="1.0" encoding="utf-8"?>
<!-- Generator: Adobe Illustrator 17.1.0, SVG Export Plug-In . SVG Version: 6.00 Build 0)  -->
<!DOCTYPE svg PUBLIC "-//W3C//DTD SVG 1.1//EN" "http://www.w3.org/Graphics/SVG/1.1/DTD/svg11.dtd">
<svg version="1.1" id="Layer_1" xmlns="http://www.w3.org/2000/svg" xmlns:xlink="http://www.w3.org/1999/xlink" x="0px" y="0px"
    viewBox="0 0 16 16" enable-background="new 0 0 16 16" xml:space="preserve">
<path d="M13.63,15.236h-0.916c-0.14-1.839-1.232-4.892-3.105-6.333C9.295,8.611,9.135,8.299,9.135,7.976
    c0-0.351,0.152-0.659,0.479-0.97c0.926-0.761,1.758-2,2.345-3.493c0.077-0.196-0.019-0.418-0.215-0.496
    c-0.196-0.077-0.418,0.02-0.495,0.216c-0.198,0.505-0.426,0.976-0.675,1.404H5.19C4.444,3.35,3.98,1.834,3.886,0.764h7.985
    c-0.027,0.315-0.085,0.668-0.172,1.039c-0.048,0.205,0.079,0.411,0.284,0.459c0.205,0.048,0.411-0.079,0.459-0.285
    c0.101-0.431,0.166-0.843,0.194-1.213h0.993c0.211,0,0.382-0.171,0.382-0.382C14.012,0.171,13.841,0,13.63,0H2.127
    C1.916,0,1.746,0.171,1.746,0.382c0,0.211,0.171,0.382,0.382,0.382h0.995c0.141,1.769,1.202,4.746,3.019,6.241
    C6.487,7.34,6.622,7.613,6.622,7.976c0,0.333-0.146,0.62-0.474,0.927c-1.873,1.442-2.965,4.494-3.105,6.333H2.127
    c-0.211,0-0.382,0.171-0.382,0.382C1.746,15.829,1.916,16,2.127,16H13.63c0.211,0,0.382-0.171,0.382-0.382
    C14.012,15.407,13.841,15.236,13.63,15.236z M10.43,15.236c-0.118-1.014-0.668-2.524-1.578-3.229
    c-0.091-0.081-0.496-0.414-0.973-0.414c-0.477,0-0.881,0.333-0.973,0.414c-0.91,0.705-1.46,2.215-1.579,3.229H3.808
    c0.143-1.714,1.189-4.493,2.818-5.737c0.01-0.007,0.019-0.015,0.028-0.023c0.492-0.456,0.731-0.946,0.731-1.5
    c0-0.354-0.085-0.669-0.266-0.97c0.234,0.099,0.529,0.201,0.759,0.201c0.231,0,0.528-0.103,0.762-0.203
    C8.462,7.307,8.372,7.628,8.372,7.976c0,0.543,0.254,1.062,0.733,1.501c0.008,0.008,0.017,0.015,0.026,0.021
    c1.629,1.244,2.675,4.023,2.818,5.737H10.43z"/>
</svg>
